<mxfile host="app.diagrams.net" agent="Mozilla/5.0 (Windows NT 10.0; Win64; x64) AppleWebKit/537.36 (KHTML, like Gecko) Chrome/131.0.0.0 Safari/537.36 Edg/131.0.0.0" version="25.0.1">
  <diagram name="Page-1" id="vMaw5M_DzOipbpOSkhiQ">
    <mxGraphModel dx="1760" dy="372" grid="1" gridSize="10" guides="1" tooltips="1" connect="1" arrows="1" fold="1" page="1" pageScale="1" pageWidth="850" pageHeight="1100" math="0" shadow="0">
      <root>
        <mxCell id="0" />
        <mxCell id="1" parent="0" />
        <mxCell id="sYjo58vGKQQwz3lAS2DO-10" style="edgeStyle=orthogonalEdgeStyle;rounded=0;orthogonalLoop=1;jettySize=auto;html=1;" edge="1" parent="1" source="sYjo58vGKQQwz3lAS2DO-8" target="sYjo58vGKQQwz3lAS2DO-9">
          <mxGeometry relative="1" as="geometry" />
        </mxCell>
        <mxCell id="sYjo58vGKQQwz3lAS2DO-14" style="edgeStyle=orthogonalEdgeStyle;rounded=0;orthogonalLoop=1;jettySize=auto;html=1;entryX=0;entryY=0.5;entryDx=0;entryDy=0;" edge="1" parent="1" source="sYjo58vGKQQwz3lAS2DO-8" target="sYjo58vGKQQwz3lAS2DO-13">
          <mxGeometry relative="1" as="geometry" />
        </mxCell>
        <mxCell id="sYjo58vGKQQwz3lAS2DO-8" value="Patient " style="rounded=0;whiteSpace=wrap;html=1;" vertex="1" parent="1">
          <mxGeometry x="120" y="60" width="120" height="60" as="geometry" />
        </mxCell>
        <mxCell id="sYjo58vGKQQwz3lAS2DO-12" style="edgeStyle=orthogonalEdgeStyle;rounded=0;orthogonalLoop=1;jettySize=auto;html=1;" edge="1" parent="1" source="sYjo58vGKQQwz3lAS2DO-9" target="sYjo58vGKQQwz3lAS2DO-11">
          <mxGeometry relative="1" as="geometry" />
        </mxCell>
        <mxCell id="sYjo58vGKQQwz3lAS2DO-9" value="Medical Record" style="rounded=0;whiteSpace=wrap;html=1;" vertex="1" parent="1">
          <mxGeometry x="120" y="230" width="120" height="60" as="geometry" />
        </mxCell>
        <mxCell id="sYjo58vGKQQwz3lAS2DO-11" value="Prescription" style="rounded=0;whiteSpace=wrap;html=1;" vertex="1" parent="1">
          <mxGeometry x="320" y="230" width="120" height="60" as="geometry" />
        </mxCell>
        <mxCell id="sYjo58vGKQQwz3lAS2DO-16" style="edgeStyle=orthogonalEdgeStyle;rounded=0;orthogonalLoop=1;jettySize=auto;html=1;" edge="1" parent="1" source="sYjo58vGKQQwz3lAS2DO-13" target="sYjo58vGKQQwz3lAS2DO-15">
          <mxGeometry relative="1" as="geometry" />
        </mxCell>
        <mxCell id="sYjo58vGKQQwz3lAS2DO-13" value="Billing" style="rounded=0;whiteSpace=wrap;html=1;" vertex="1" parent="1">
          <mxGeometry x="305" y="120" width="120" height="60" as="geometry" />
        </mxCell>
        <mxCell id="sYjo58vGKQQwz3lAS2DO-15" value="Insurance&amp;nbsp;" style="rounded=0;whiteSpace=wrap;html=1;" vertex="1" parent="1">
          <mxGeometry x="500" y="120" width="120" height="60" as="geometry" />
        </mxCell>
        <mxCell id="sYjo58vGKQQwz3lAS2DO-18" style="edgeStyle=orthogonalEdgeStyle;rounded=0;orthogonalLoop=1;jettySize=auto;html=1;" edge="1" parent="1" source="sYjo58vGKQQwz3lAS2DO-17" target="sYjo58vGKQQwz3lAS2DO-9">
          <mxGeometry relative="1" as="geometry" />
        </mxCell>
        <mxCell id="sYjo58vGKQQwz3lAS2DO-17" value="Appointment" style="rounded=0;whiteSpace=wrap;html=1;" vertex="1" parent="1">
          <mxGeometry x="-90" y="230" width="120" height="60" as="geometry" />
        </mxCell>
        <mxCell id="sYjo58vGKQQwz3lAS2DO-19" style="edgeStyle=orthogonalEdgeStyle;rounded=0;orthogonalLoop=1;jettySize=auto;html=1;entryX=0.389;entryY=0.014;entryDx=0;entryDy=0;entryPerimeter=0;" edge="1" parent="1" source="sYjo58vGKQQwz3lAS2DO-17" target="sYjo58vGKQQwz3lAS2DO-13">
          <mxGeometry relative="1" as="geometry">
            <Array as="points">
              <mxPoint x="-30" y="20" />
              <mxPoint x="352" y="20" />
            </Array>
          </mxGeometry>
        </mxCell>
        <mxCell id="sYjo58vGKQQwz3lAS2DO-20" value="Practitioner" style="rounded=0;whiteSpace=wrap;html=1;" vertex="1" parent="1">
          <mxGeometry x="-100" y="90" width="140" height="60" as="geometry" />
        </mxCell>
      </root>
    </mxGraphModel>
  </diagram>
</mxfile>
